<svg xmlns="http://www.w3.org/2000/svg" width="72.789" height="69.056" viewBox="0 0 72.789 69.056"><defs><style>.a{fill:#ffb541;}.b{fill:#ffe1a8;}.c{fill:#ffa812;}.d{fill:#ffd98f;}.e{fill:#aed3ff;}.f{fill:#83bfff;}</style></defs><path class="a" d="M376.805,188.764H360.869a2.53,2.53,0,0,1-2.522-2.522V182.69a2.529,2.529,0,0,1,2.522-2.522h15.936a2.529,2.529,0,0,1,2.522,2.522v3.552A2.53,2.53,0,0,1,376.805,188.764Zm0,0" transform="translate(-307.616 -154.589)"/><path class="b" d="M376.805,248.057H360.869a2.53,2.53,0,0,1-2.522-2.522v-3.552a2.529,2.529,0,0,1,2.522-2.522h15.936a2.529,2.529,0,0,1,2.522,2.522v3.552A2.53,2.53,0,0,1,376.805,248.057Zm0,0" transform="translate(-307.616 -205.464)"/><path class="b" d="M376.805,366.643H360.869a2.53,2.53,0,0,1-2.522-2.522v-3.552a2.529,2.529,0,0,1,2.522-2.522h15.936a2.529,2.529,0,0,1,2.522,2.522v3.552A2.53,2.53,0,0,1,376.805,366.643Zm0,0" transform="translate(-307.616 -307.322)"/><path class="a" d="M376.805,426.944H360.869a2.529,2.529,0,0,1-2.522-2.522V420.87a2.53,2.53,0,0,1,2.522-2.522h15.936a2.53,2.53,0,0,1,2.522,2.522v3.552A2.529,2.529,0,0,1,376.805,426.944Zm0,0" transform="translate(-307.616 -358.966)"/><path class="a" d="M376.805,307.35H360.869a2.53,2.53,0,0,1-2.522-2.522v-3.552a2.529,2.529,0,0,1,2.522-2.522h15.936a2.529,2.529,0,0,1,2.522,2.522v3.552A2.53,2.53,0,0,1,376.805,307.35Zm0,0" transform="translate(-307.616 -256.34)"/><g transform="translate(65.857 25.189)"><path class="c" d="M469.565,420.873v3.551a2.53,2.53,0,0,1-2.522,2.523h-3.332a2.53,2.53,0,0,0,2.521-2.523v-3.551a2.529,2.529,0,0,0-2.521-2.522h3.332A2.529,2.529,0,0,1,469.565,420.873Zm0,0" transform="translate(-463.711 -384.159)"/><path class="c" d="M469.565,301.28v3.551a2.532,2.532,0,0,1-2.066,2.481,2.493,2.493,0,0,1-.456.042h-3.332a2.492,2.492,0,0,0,.455-.042,2.4,2.4,0,0,0-.455-.043h.644a2.531,2.531,0,0,0,1.877-2.438V301.28a2.529,2.529,0,0,0-2.521-2.522h3.332A2.529,2.529,0,0,1,469.565,301.28Zm0,0" transform="translate(-463.711 -281.733)"/><path class="c" d="M469.565,182.69v3.551a2.532,2.532,0,0,1-2.066,2.481,2.5,2.5,0,0,1-.456.042h-3.332a2.5,2.5,0,0,0,.455-.042,2.4,2.4,0,0,0-.455-.043h.644a2.531,2.531,0,0,0,1.877-2.438V182.69a2.529,2.529,0,0,0-2.521-2.522h3.332A2.529,2.529,0,0,1,469.565,182.69Zm0,0" transform="translate(-463.711 -180.168)"/></g><path class="d" d="M469.565,360.568v3.552a2.529,2.529,0,0,1-2.522,2.522h-3.332a2.529,2.529,0,0,0,2.521-2.522v-3.552a2.533,2.533,0,0,0-1.873-2.437h-.648a2.5,2.5,0,0,0,.455-.042,2.4,2.4,0,0,0-.455-.043h3.332a2.4,2.4,0,0,1,.456.043A2.53,2.53,0,0,1,469.565,360.568Zm0,0" transform="translate(-397.854 -307.322)"/><path class="d" d="M469.565,241.983v3.552a2.529,2.529,0,0,1-2.522,2.522h-3.332a2.529,2.529,0,0,0,2.521-2.522v-3.552a2.534,2.534,0,0,0-1.873-2.437h-.648a2.5,2.5,0,0,0,.455-.042,2.4,2.4,0,0,0-.455-.043h3.332a2.4,2.4,0,0,1,.456.043A2.529,2.529,0,0,1,469.565,241.983Zm0,0" transform="translate(-397.854 -205.464)"/><path class="a" d="M201.387,366.643H185.451a2.53,2.53,0,0,1-2.522-2.522v-3.552a2.529,2.529,0,0,1,2.522-2.522h15.936a2.529,2.529,0,0,1,2.522,2.522v3.552A2.53,2.53,0,0,1,201.387,366.643Zm0,0" transform="translate(-157.025 -307.322)"/><path class="a" d="M201.387,248.057H185.451a2.53,2.53,0,0,1-2.522-2.522v-3.552a2.529,2.529,0,0,1,2.522-2.522h15.936a2.529,2.529,0,0,1,2.522,2.522v3.552A2.53,2.53,0,0,1,201.387,248.057Zm0,0" transform="translate(-157.025 -205.464)"/><path class="b" d="M201.387,426.944H185.451a2.529,2.529,0,0,1-2.522-2.522V420.87a2.53,2.53,0,0,1,2.522-2.522h15.936a2.53,2.53,0,0,1,2.522,2.522v3.552A2.529,2.529,0,0,1,201.387,426.944Zm0,0" transform="translate(-157.025 -358.966)"/><path class="b" d="M201.387,307.35H185.451a2.53,2.53,0,0,1-2.522-2.522v-3.552a2.529,2.529,0,0,1,2.522-2.522h15.936a2.529,2.529,0,0,1,2.522,2.522v3.552A2.53,2.53,0,0,1,201.387,307.35Zm0,0" transform="translate(-157.025 -256.34)"/><path class="d" d="M294.143,420.873v3.551a2.53,2.53,0,0,1-2.522,2.523h-3.333a2.53,2.53,0,0,0,2.522-2.523v-3.551a2.529,2.529,0,0,0-2.522-2.522h3.333A2.529,2.529,0,0,1,294.143,420.873Zm0,0" transform="translate(-247.339 -358.97)"/><path class="d" d="M294.143,301.28v3.551a2.532,2.532,0,0,1-2.066,2.481,2.493,2.493,0,0,1-.456.042h-3.333a2.493,2.493,0,0,0,.456-.042,2.4,2.4,0,0,0-.456-.043h.644a2.531,2.531,0,0,0,1.877-2.438V301.28a2.529,2.529,0,0,0-2.522-2.522h3.333A2.529,2.529,0,0,1,294.143,301.28Zm0,0" transform="translate(-247.339 -256.343)"/><path class="c" d="M294.143,360.568v3.552a2.529,2.529,0,0,1-2.522,2.522h-3.333a2.529,2.529,0,0,0,2.522-2.522v-3.552a2.534,2.534,0,0,0-1.873-2.437h-.649a2.5,2.5,0,0,0,.456-.042,2.4,2.4,0,0,0-.456-.043h3.333a2.4,2.4,0,0,1,.456.043A2.53,2.53,0,0,1,294.143,360.568Zm0,0" transform="translate(-247.339 -307.322)"/><path class="c" d="M294.143,241.983v3.552a2.529,2.529,0,0,1-2.522,2.522h-3.333a2.529,2.529,0,0,0,2.522-2.522v-3.552a2.535,2.535,0,0,0-1.873-2.437h-.649a2.5,2.5,0,0,0,.456-.042,2.4,2.4,0,0,0-.456-.043h3.333a2.4,2.4,0,0,1,.456.043A2.529,2.529,0,0,1,294.143,241.983Zm0,0" transform="translate(-247.339 -205.464)"/><path class="a" d="M25.969,426.944H10.033a2.529,2.529,0,0,1-2.522-2.522V420.87a2.53,2.53,0,0,1,2.522-2.522H25.969a2.53,2.53,0,0,1,2.522,2.522v3.552A2.53,2.53,0,0,1,25.969,426.944Zm0,0" transform="translate(-6.433 -358.966)"/><path class="a" d="M25.969,307.35H10.033a2.53,2.53,0,0,1-2.522-2.522v-3.552a2.529,2.529,0,0,1,2.522-2.522H25.969a2.529,2.529,0,0,1,2.522,2.522v3.552A2.53,2.53,0,0,1,25.969,307.35Zm0,0" transform="translate(-6.433 -256.34)"/><path class="c" d="M118.725,420.873v3.551a2.53,2.53,0,0,1-2.521,2.523h-3.333a2.53,2.53,0,0,0,2.522-2.523v-3.551a2.529,2.529,0,0,0-2.522-2.522H116.2A2.529,2.529,0,0,1,118.725,420.873Zm0,0" transform="translate(-96.838 -358.97)"/><path class="c" d="M118.725,301.28v3.551a2.532,2.532,0,0,1-2.066,2.481,2.492,2.492,0,0,1-.455.042h-3.333a2.5,2.5,0,0,0,.456-.042,2.41,2.41,0,0,0-.456-.043h.644a2.531,2.531,0,0,0,1.878-2.438V301.28a2.529,2.529,0,0,0-2.522-2.522H116.2A2.529,2.529,0,0,1,118.725,301.28Zm0,0" transform="translate(-96.838 -256.343)"/><path class="b" d="M25.969,366.643H10.033a2.53,2.53,0,0,1-2.522-2.522v-3.552a2.529,2.529,0,0,1,2.522-2.522H25.969a2.529,2.529,0,0,1,2.522,2.522v3.552A2.53,2.53,0,0,1,25.969,366.643Zm0,0" transform="translate(-6.433 -307.322)"/><path class="d" d="M118.725,360.568v3.552a2.529,2.529,0,0,1-2.521,2.522h-3.333a2.529,2.529,0,0,0,2.522-2.522v-3.552a2.534,2.534,0,0,0-1.874-2.437h-.648a2.508,2.508,0,0,0,.456-.042,2.41,2.41,0,0,0-.456-.043H116.2a2.4,2.4,0,0,1,.455.043A2.53,2.53,0,0,1,118.725,360.568Zm0,0" transform="translate(-96.838 -307.322)"/><path class="a" d="M113.515,358.043c-.062.017-.125.032-.188.043a2.407,2.407,0,0,0-.456-.043Zm0,0" transform="translate(-96.826 -307.142)"/><path class="b" d="M113.519,358.386h-.648a2.511,2.511,0,0,0,.456-.042A1.687,1.687,0,0,1,113.519,358.386Zm0,0" transform="translate(-96.826 -307.4)"/><path class="e" d="M95.792,11.184,85.845,7.7a3.114,3.114,0,0,0-4,2.023,3.164,3.164,0,0,0,2.026,3.966l.832.268L71.88,20.744a2.367,2.367,0,0,1-2.625-.275L67.52,19.026a2.366,2.366,0,0,0-2.751-.2L35.364,34.97a3.426,3.426,0,0,0-1.4,4.154,3.353,3.353,0,0,0,4.953,1.634L63.961,26.849a2.368,2.368,0,0,1,2.86.218L67.988,28.1a2.368,2.368,0,0,0,2.669.33l16.857-8.794-.461,1.087a3.17,3.17,0,0,0,1.639,4.145,3.109,3.109,0,0,0,4.128-1.73l3.907-9.886A1.577,1.577,0,0,0,95.792,11.184Zm0,0" transform="translate(-28.892 -6.443)"/><path class="f" d="M96.729,33.936l-3.907,9.886a3.165,3.165,0,0,1-.549.909,3.1,3.1,0,0,1-3.579.82,3.17,3.17,0,0,1-1.639-4.145l.461-1.086L70.659,49.112a2.368,2.368,0,0,1-2.669-.329L66.823,47.75a2.368,2.368,0,0,0-2.861-.22L38.92,61.439a3.34,3.34,0,0,1-4.037-.309,3.391,3.391,0,0,1-.915-1.324,3.437,3.437,0,0,1-.218-1.52,3.334,3.334,0,0,0,3.943.228L62.736,44.608a2.367,2.367,0,0,1,2.86.218l1.167,1.033a2.367,2.367,0,0,0,2.668.33S80.5,39.88,85.392,37.1a1.555,1.555,0,0,1,1.972.4c2.027,2.448,5.494.2,6.436-2.184q.721-1.824,1.441-3.645l.554.195A1.578,1.578,0,0,1,96.729,33.936Zm0,0" transform="translate(-28.894 -27.125)"/><path d="M373.972,176.256a3.6,3.6,0,0,0-3.6-3.6H354.436a3.6,3.6,0,0,0-3.6,3.6v3.552a3.588,3.588,0,0,0,.994,2.48,3.586,3.586,0,0,0-.994,2.48v3.552a3.588,3.588,0,0,0,.994,2.48,3.586,3.586,0,0,0-.994,2.48v3.552a3.588,3.588,0,0,0,.994,2.48,3.586,3.586,0,0,0-.994,2.48v3.552A3.591,3.591,0,0,0,351.9,207.9a3.59,3.59,0,0,0-1.064,2.552V214a3.6,3.6,0,0,0,3.6,3.6h8.64a1.078,1.078,0,0,0,0-2.157h-8.64A1.445,1.445,0,0,1,352.993,214v-3.552a1.445,1.445,0,0,1,1.443-1.443h15.936a1.445,1.445,0,0,1,1.443,1.443V214a1.445,1.445,0,0,1-1.443,1.443H368.1a1.078,1.078,0,1,0,0,2.157h2.276a3.6,3.6,0,0,0,3.6-3.6v-3.552a3.588,3.588,0,0,0-1.064-2.552,3.59,3.59,0,0,0,1.064-2.553v-3.552a3.586,3.586,0,0,0-.994-2.48,3.588,3.588,0,0,0,.994-2.48V193.28a3.586,3.586,0,0,0-.994-2.48,3.588,3.588,0,0,0,.994-2.48v-3.552a3.586,3.586,0,0,0-.994-2.48,3.588,3.588,0,0,0,.994-2.48Zm-2.157,29.088a1.445,1.445,0,0,1-1.443,1.443H354.436a1.445,1.445,0,0,1-1.443-1.443v-3.552a1.446,1.446,0,0,1,1.034-1.383,3.667,3.667,0,0,0,.41.024h15.936a3.666,3.666,0,0,0,.41-.024,1.446,1.446,0,0,1,1.034,1.383Zm0-8.512a1.446,1.446,0,0,1-1.034,1.384,3.537,3.537,0,0,0-.41-.024H354.436a3.537,3.537,0,0,0-.41.024,1.446,1.446,0,0,1-1.034-1.384V193.28a1.446,1.446,0,0,1,1.034-1.384,3.526,3.526,0,0,0,.409.024h15.936a3.528,3.528,0,0,0,.409-.024,1.446,1.446,0,0,1,1.034,1.384Zm0-8.512a1.446,1.446,0,0,1-1.034,1.384,3.531,3.531,0,0,0-.409-.024H354.436a3.529,3.529,0,0,0-.409.024,1.446,1.446,0,0,1-1.034-1.384v-3.552a1.446,1.446,0,0,1,1.034-1.383,3.656,3.656,0,0,0,.409.024h15.936a3.657,3.657,0,0,0,.409-.024,1.446,1.446,0,0,1,1.034,1.383Zm0-8.512a1.446,1.446,0,0,1-1.034,1.384,3.524,3.524,0,0,0-.409-.024H354.436a3.523,3.523,0,0,0-.409.024,1.446,1.446,0,0,1-1.034-1.384v-3.552a1.446,1.446,0,0,1,1.444-1.444h15.935a1.445,1.445,0,0,1,1.443,1.444Zm0,0" transform="translate(-301.183 -148.546)"/><path d="M194.954,231.949H179.018a3.6,3.6,0,0,0-3.6,3.6V239.1a3.588,3.588,0,0,0,.994,2.48,3.586,3.586,0,0,0-.994,2.48v3.552a3.588,3.588,0,0,0,.994,2.48,3.586,3.586,0,0,0-.994,2.48v3.552a3.589,3.589,0,0,0,1.064,2.553,3.588,3.588,0,0,0-1.064,2.552v3.552a3.6,3.6,0,0,0,3.6,3.6h15.936a3.6,3.6,0,0,0,3.6-3.6V261.23a3.59,3.59,0,0,0-1.064-2.552,3.592,3.592,0,0,0,1.064-2.553v-3.552a3.586,3.586,0,0,0-.994-2.48,3.588,3.588,0,0,0,.994-2.48v-3.552a3.586,3.586,0,0,0-.994-2.48,3.588,3.588,0,0,0,.994-2.48v-3.552A3.6,3.6,0,0,0,194.954,231.949Zm1.443,32.833a1.445,1.445,0,0,1-1.443,1.443H179.018a1.445,1.445,0,0,1-1.443-1.443V261.23a1.445,1.445,0,0,1,1.443-1.444h15.936a1.445,1.445,0,0,1,1.443,1.444Zm0-8.657a1.445,1.445,0,0,1-1.443,1.443H179.018a1.445,1.445,0,0,1-1.443-1.443v-3.552a1.446,1.446,0,0,1,1.034-1.383,3.663,3.663,0,0,0,.41.024h15.936a3.663,3.663,0,0,0,.41-.024,1.446,1.446,0,0,1,1.033,1.383Zm0-8.512A1.446,1.446,0,0,1,195.364,249a3.537,3.537,0,0,0-.41-.024H179.018a3.537,3.537,0,0,0-.41.024,1.446,1.446,0,0,1-1.034-1.384v-3.552a1.446,1.446,0,0,1,1.034-1.384,3.537,3.537,0,0,0,.41.024h15.935a3.529,3.529,0,0,0,.41-.024,1.446,1.446,0,0,1,1.034,1.384Zm0-8.512a1.446,1.446,0,0,1-1.034,1.384,3.527,3.527,0,0,0-.409-.024H179.018a3.52,3.52,0,0,0-.409.024,1.446,1.446,0,0,1-1.034-1.384v-3.552a1.446,1.446,0,0,1,1.443-1.444h15.936a1.445,1.445,0,0,1,1.443,1.444Zm0,0" transform="translate(-150.591 -199.327)"/><path d="M19.535,291.242H3.6a3.6,3.6,0,0,0-3.6,3.6v3.552a3.588,3.588,0,0,0,.994,2.48A3.586,3.586,0,0,0,0,303.354v3.552a3.589,3.589,0,0,0,1.064,2.553A3.589,3.589,0,0,0,0,312.011v3.552a3.6,3.6,0,0,0,3.6,3.6H19.536a3.6,3.6,0,0,0,3.6-3.6v-3.552a3.591,3.591,0,0,0-1.064-2.553,3.591,3.591,0,0,0,1.064-2.552v-3.552a3.586,3.586,0,0,0-.994-2.48,3.587,3.587,0,0,0,.994-2.48v-3.552A3.605,3.605,0,0,0,19.535,291.242Zm1.444,24.321a1.445,1.445,0,0,1-1.444,1.443H3.6a1.445,1.445,0,0,1-1.443-1.443v-3.552A1.445,1.445,0,0,1,3.6,310.567H19.536a1.445,1.445,0,0,1,1.443,1.444Zm0-8.657a1.445,1.445,0,0,1-1.444,1.443H3.6a1.445,1.445,0,0,1-1.443-1.443v-3.552a1.446,1.446,0,0,1,1.033-1.383,3.659,3.659,0,0,0,.41.024H19.536a3.659,3.659,0,0,0,.41-.024,1.446,1.446,0,0,1,1.033,1.383Zm0-8.512a1.446,1.446,0,0,1-1.034,1.384,3.526,3.526,0,0,0-.41-.024H3.6a3.533,3.533,0,0,0-.41.024,1.446,1.446,0,0,1-1.033-1.384v-3.552A1.445,1.445,0,0,1,3.6,293.4H19.536a1.445,1.445,0,0,1,1.443,1.444Zm0,0" transform="translate(0 -250.108)"/><path d="M29.275,35.708a4.381,4.381,0,0,0,3.732-.465l4.886-2.712a1.084,1.084,0,0,0,.422-1.464,1.061,1.061,0,0,0-1.448-.426l-4.915,2.729-.061.036a2.273,2.273,0,0,1-1.954.252A2.307,2.307,0,0,1,28.5,32.29a2.338,2.338,0,0,1,.937-2.828L58.834,13.327l.042-.024a1.314,1.314,0,0,1,1.524.112l1.736,1.443a3.419,3.419,0,0,0,3.8.4L78.764,8.468a1.083,1.083,0,0,0-.17-1.983l-.832-.268a2.085,2.085,0,0,1-1.334-2.611,2.056,2.056,0,0,1,1.038-1.226,2.02,2.02,0,0,1,1.594-.105L89.01,5.76a.488.488,0,0,1,.285.261.5.5,0,0,1,.009.389L85.4,16.3a2.049,2.049,0,0,1-1.122,1.148,2.017,2.017,0,0,1-1.6-.01A2.089,2.089,0,0,1,81.6,14.706l.461-1.087a1.086,1.086,0,0,0-.253-1.214,1.058,1.058,0,0,0-1.216-.169L63.726,21.029a1.3,1.3,0,0,1-1.478-.183l-1.167-1.033a3.444,3.444,0,0,0-4.106-.337L41.26,28.2a1.084,1.084,0,0,0-.422,1.464,1.061,1.061,0,0,0,1.448.426L58.03,21.351c.021-.011.041-.024.061-.036a1.318,1.318,0,0,1,1.584.121l1.167,1.033a3.408,3.408,0,0,0,3.862.477l14.6-7.612a4.245,4.245,0,0,0,2.534,4.084,4.115,4.115,0,0,0,3.255.02A4.18,4.18,0,0,0,87.377,17.1L91.285,7.21a2.69,2.69,0,0,0-.05-2.085,2.645,2.645,0,0,0-1.526-1.4L79.758.236a4.117,4.117,0,0,0-3.247.215,4.188,4.188,0,0,0-2.115,2.5,4.269,4.269,0,0,0,1.43,4.638L64.945,13.345a1.308,1.308,0,0,1-1.454-.152L61.755,11.75a3.431,3.431,0,0,0-3.958-.307L28.4,27.58l-.042.024a4.5,4.5,0,0,0-1.842,5.469A4.444,4.444,0,0,0,29.275,35.708Zm0,0" transform="translate(-22.448 0)"/></svg>