<svg xmlns="http://www.w3.org/2000/svg" width="69.426" height="69.429" viewBox="0 0 69.426 69.429"><defs><style>.a{fill:#88b337;}.b{fill:#dadddf;}.c{fill:#cfd2d4;}</style></defs><g transform="translate(0 0)"><g transform="translate(0 0)"><path class="a" d="M323.492,311.975l-13.749-13.749-.576.576a2.445,2.445,0,1,1-3.458-3.458h0l.576-.576-3.458-3.458L291.3,302.836l3.458,3.458.576-.576a2.445,2.445,0,0,1,3.458,3.458l-.576.576L311.966,323.5a8.163,8.163,0,0,0,1.373,1.1l11.249-11.249A8.169,8.169,0,0,0,323.492,311.975Z" transform="translate(-257.635 -257.641)"/><path class="b" d="M494.6,483.362l-11.249,11.249A8.141,8.141,0,0,0,494.6,483.362Z" transform="translate(-427.648 -427.656)"/><path class="c" d="M23.885,19.285l-1.153-4.61-8.068-4.61-4.61,4.61,4.61,8.068,4.61,1.153L45.784,50.4l4.61-4.61Z" transform="translate(-8.902 -8.909)"/><path class="b" d="M75.628,19.667l-7.706,7.706-6.94-2.313-2.313-6.94,7.706-7.706a12.671,12.671,0,0,0-15.41,15.41L24.73,52.058a12.8,12.8,0,1,0,9.254,9.254L60.218,35.077a12.677,12.677,0,0,0,15.41-15.41ZM25.123,70.173h-6.94l-3.47-5.784,3.47-5.784h6.94l3.47,5.784Z" transform="translate(-7.775 -8.867)"/><path class="c" d="M557.069,487.752a8.132,8.132,0,0,0-1.291-4.39l-3.319,3.319v8.4A8.142,8.142,0,0,0,557.069,487.752Z" transform="translate(-488.826 -427.656)"/><path d="M.2,6.416l4.61,8.068a1.15,1.15,0,0,0,.72.546l4.3,1.075L24.582,30.859l1.63-1.63L11.228,14.246a1.151,1.151,0,0,0-.535-.3L6.56,12.905,2.634,6.033,6,2.667,12.876,6.6l1.037,4.133a1.154,1.154,0,0,0,.3.536L29.2,26.249l1.63-1.63L16.077,9.866,15,5.567a1.149,1.149,0,0,0-.546-.722L6.387.235A1.153,1.153,0,0,0,5,.421L.394,5.031A1.151,1.151,0,0,0,.2,6.416Z" transform="translate(-0.045 -0.075)"/><rect width="35.86" height="2.305" transform="translate(21.205 46.564) rotate(-45)"/><path d="M62.751,422.448a1.153,1.153,0,0,0-.988-.559H54.848a1.152,1.152,0,0,0-.988.559L50.4,428.211a1.155,1.155,0,0,0,0,1.187l3.458,5.763a1.153,1.153,0,0,0,.988.559h6.915a1.152,1.152,0,0,0,.988-.559l3.458-5.763a1.155,1.155,0,0,0,0-1.187Zm-1.64,10.967H55.5l-2.766-4.61,2.766-4.61h5.611l2.766,4.61Z" transform="translate(-44.475 -373.237)"/><path d="M55.528,27.761A13.833,13.833,0,0,0,68.982,10.527a1.156,1.156,0,0,0-1.94-.539l-7.2,7.2-5.712-1.9-1.9-5.711,7.2-7.2A1.157,1.157,0,0,0,58.882.427,13.836,13.836,0,0,0,41.649,13.881a13.589,13.589,0,0,0,.281,2.71L16.6,41.921a13.674,13.674,0,0,0-2.71-.281A13.879,13.879,0,1,0,27.77,55.519a13.589,13.589,0,0,0-.281-2.71l6.064-6.064L36.2,49.4a1.157,1.157,0,0,0,1.635,0l.578-.578a1.3,1.3,0,0,1,1.837,1.832l0,0-.578.578a1.157,1.157,0,0,0,0,1.635l13.8,13.8A9.335,9.335,0,0,0,66.733,53.523l-.06-.06-13.8-13.8a1.157,1.157,0,0,0-1.635,0l-.578.578a1.3,1.3,0,0,1-1.837-1.832l0,0,.578-.578a1.157,1.157,0,0,0,0-1.635l-2.652-2.652,6.064-6.064A13.676,13.676,0,0,0,55.528,27.761Zm4.544,39.325a7.009,7.009,0,0,1-2.46-.449L66.645,57.6a7.014,7.014,0,0,1-6.573,9.482Zm-13.1-30.06a3.61,3.61,0,0,0,5.089,5.082L65.038,55.1c.141.141.273.29.4.442l-9.889,9.889c-.152-.127-.3-.259-.442-.4L42.117,52.038a3.61,3.61,0,0,0-5.089-5.082l-1.851-1.851,9.941-9.926Zm4.67-11.633L25.4,51.625a1.156,1.156,0,0,0-.305,1.1,11.644,11.644,0,1,1-8.411-8.411,1.168,1.168,0,0,0,1.1-.305L44.016,17.774a1.159,1.159,0,0,0,.3-1.1A11.512,11.512,0,0,1,56.185,2.334l-6.1,6.1a1.156,1.156,0,0,0-.28,1.183l2.313,6.94a1.154,1.154,0,0,0,.732.731l6.94,2.313a1.155,1.155,0,0,0,1.183-.279l6.1-6.1c.014.221.021.44.021.657A11.507,11.507,0,0,1,52.732,25.088a1.158,1.158,0,0,0-1.1.3Z" transform="translate(-0.011 0)"/><rect width="2.305" height="16.3" transform="translate(46.68 48.315) rotate(-45)"/></g></g></svg>