<svg xmlns="http://www.w3.org/2000/svg" width="20.189" height="20" viewBox="0 0 20.189 20"><defs><style>.a{fill:#fff;}</style></defs><g transform="translate(-5 -5.7)"><g transform="translate(5 5.701)"><path class="a" d="M65.779,6.783a.524.524,0,0,1,.593,0l.3.21h1.724L66.94,5.973a1.51,1.51,0,0,0-1.73,0L63.755,6.993h1.724Z" transform="translate(-55.981 -5.7)"/><path class="a" d="M24.605,47.143l-1.28-.877V47.38l.583.4-8.815,6.043L6.279,47.78l.583-.4V46.266l-1.28.877A1.321,1.321,0,0,0,5,48.229V59.137a1.37,1.37,0,0,0,1.4,1.336H23.79a1.37,1.37,0,0,0,1.4-1.336V48.229A1.321,1.321,0,0,0,24.605,47.143ZM5.933,59.137V48.657l15.907,10.9H6.4A.446.446,0,0,1,5.933,59.137Zm17.857.424h-.325L15.907,54.38l8.348-5.723v10.48A.447.447,0,0,1,23.79,59.561Z" transform="translate(-5 -40.473)"/><path class="a" d="M63.157,36.765a.354.354,0,1,0,0-.707H57.569a.354.354,0,1,0,0,.707Z" transform="translate(-50.366 -31.981)"/><path class="a" d="M23.223,19.212H36.636v5.531l.916-.695V18.717a.478.478,0,0,0-.458-.5H22.765a.478.478,0,0,0-.458.5v5.331l.916.695V19.212Z" transform="translate(-19.835 -16.434)"/><path class="a" d="M39.073,53.588l1.009.707H42.7a.354.354,0,0,0,.354-.354V49.954A.354.354,0,0,0,42.7,49.6H37.825a.354.354,0,0,0-.354.354v2.511l.707.5V50.307h4.164v3.281Z" transform="translate(-33.195 -43.794)"/><path class="a" d="M88.735,49.6H83.821a.354.354,0,1,0,0,.707h4.914a.354.354,0,0,0,0-.707Z" transform="translate(-73.136 -43.702)"/><path class="a" d="M88.735,58.906H83.821a.354.354,0,1,0,0,.707h4.914a.354.354,0,0,0,0-.707Z" transform="translate(-73.136 -51.76)"/><path class="a" d="M89.054,68.416a.358.358,0,0,0-.067-.1.352.352,0,0,0-.251-.1H83.822a.354.354,0,0,0,0,.707h4.51Z" transform="translate(-73.134 -59.819)"/><path class="a" d="M87.444,77.524H83.821a.354.354,0,1,0,0,.707h2.615Z" transform="translate(-73.053 -67.878)"/><path class="a" d="M76.266,95.827H74.773l.746.524Z" transform="translate(-65.425 -83.716)"/><path class="a" d="M67.187,86.911H62.064l1.008.707h3.106Z" transform="translate(-54.531 -76.004)"/></g></g></svg>