<svg xmlns="http://www.w3.org/2000/svg" width="75.847" height="70" viewBox="0 0 75.847 70"><defs><style>.a{fill:#093ecb;stroke:#093ecb;}</style></defs><g transform="translate(0.5 0.5)"><path class="a" d="M13.025,336.332H1.386A1.385,1.385,0,0,0,0,337.718v16.027a1.385,1.385,0,0,0,1.386,1.386H13.025a1.385,1.385,0,0,0,1.386-1.386V337.718A1.386,1.386,0,0,0,13.025,336.332Zm-1.386,16.027H2.771V339.1h8.868Zm0,0" transform="translate(0 -286.13)"/><path class="a" d="M148.693,212H137.054a1.385,1.385,0,0,0-1.386,1.386V246.64a1.385,1.385,0,0,0,1.386,1.386h11.639a1.385,1.385,0,0,0,1.386-1.386V213.386A1.386,1.386,0,0,0,148.693,212Zm-1.386,33.254h-8.868V214.771h8.868Zm0,0" transform="translate(-115.571 -179.025)"/><path class="a" d="M284.966,244H273.327a1.386,1.386,0,0,0-1.386,1.386v28.82a1.386,1.386,0,0,0,1.386,1.386h11.639a1.386,1.386,0,0,0,1.386-1.386v-28.82A1.385,1.385,0,0,0,284.966,244Zm-1.386,28.82h-8.868V246.771h8.868Zm0,0" transform="translate(-231.659 -206.592)"/><path class="a" d="M16.153,41.291a6,6,0,0,0,6.153-5.819,5.54,5.54,0,0,0-.759-2.8l11.067-9.593a6.37,6.37,0,0,0,3.414.981,6.2,6.2,0,0,0,5.48-3.179l8.333,1.851a6.164,6.164,0,0,0,12.3-.057,5.538,5.538,0,0,0-.723-2.734l11.026-9.326a6.365,6.365,0,0,0,3.476,1.021,6,6,0,0,0,6.153-5.819,6.162,6.162,0,0,0-12.306,0,5.532,5.532,0,0,0,.723,2.734L59.467,17.879a6.361,6.361,0,0,0-3.476-1.021,6.2,6.2,0,0,0-5.48,3.179l-8.333-1.851a6.164,6.164,0,0,0-12.3.057,5.54,5.54,0,0,0,.759,2.8L19.567,30.632a6.365,6.365,0,0,0-3.414-.981A6,6,0,0,0,10,35.471,6,6,0,0,0,16.153,41.291ZM75.923,2.771a3.142,3.142,0,0,1,3.223,3.048,3.228,3.228,0,0,1-6.446,0A3.142,3.142,0,0,1,75.923,2.771ZM55.991,19.629a3.053,3.053,0,1,1-3.223,3.048A3.142,3.142,0,0,1,55.991,19.629ZM36.028,15.2a3.143,3.143,0,0,1,3.223,3.048,3.228,3.228,0,0,1-6.446,0A3.142,3.142,0,0,1,36.028,15.2ZM16.153,32.423a3.053,3.053,0,1,1,0,6.1,3.053,3.053,0,1,1,0-6.1Zm0,0" transform="translate(-8.614)"/><path class="a" d="M421.025,122.332H409.386A1.386,1.386,0,0,0,408,123.718v16.6a1.386,1.386,0,1,0,2.771,0V125.1h8.868v42.907h-8.868V152.792a1.386,1.386,0,1,0-2.771,0v16.6a1.386,1.386,0,0,0,1.386,1.386h11.639a1.385,1.385,0,0,0,1.386-1.386V123.718A1.386,1.386,0,0,0,421.025,122.332Zm0,0" transform="translate(-347.563 -101.782)"/><path class="a" d="M409.386,289.943a1.387,1.387,0,1,0-.98-.406A1.395,1.395,0,0,0,409.386,289.943Zm0,0" transform="translate(-348.229 -245.094)"/></g></svg>