<svg xmlns="http://www.w3.org/2000/svg" width="69" height="69" viewBox="0 0 69 69"><defs><style>.a{fill:#fd003a;}.b{fill:#dd0030;}</style></defs><path class="a" d="M34.635,0A34.619,34.619,0,0,0,0,34.365,34.85,34.85,0,0,0,34.635,69a34.5,34.5,0,0,0,0-69Zm0,56.871A22.74,22.74,0,0,1,12.129,34.365a22,22,0,0,1,2.83-10.835L34.635,43.207,45.469,54.041A21.988,21.988,0,0,1,34.635,56.871ZM54.041,45.2,23.8,14.959a22,22,0,0,1,10.835-2.83A22.276,22.276,0,0,1,56.871,34.365,22,22,0,0,1,54.041,45.2Z" transform="translate(0)"/><path class="b" d="M290.792,34.365C290.792,53.327,275.644,69,257,69V56.871a21.341,21.341,0,0,0,10.653-2.83L257,43.207V25.794L276.083,45.2A22.29,22.29,0,0,0,257,12.129V0C275.644,0,290.792,15.4,290.792,34.365Z" transform="translate(-221.792)"/></svg>