<svg xmlns="http://www.w3.org/2000/svg" xmlns:xlink="http://www.w3.org/1999/xlink" width="69" height="69" viewBox="0 0 69 69"><defs><style>.a{fill:url(#a);}.b{fill:url(#b);}</style><linearGradient id="a" x1="0.5" x2="0.5" y2="1" gradientUnits="objectBoundingBox"><stop offset="0" stop-color="#12eb79"/><stop offset="1" stop-color="#09763d"/></linearGradient><linearGradient id="b" x1="0.5" x2="0.5" y2="1" gradientUnits="objectBoundingBox"><stop offset="0" stop-color="#0ebb60"/><stop offset="1" stop-color="#00d163"/></linearGradient></defs><path class="a" d="M160.791,202.827a4.051,4.051,0,0,1-2.861-1.2l-6.088-6.088a4.061,4.061,0,1,1,5.743-5.743l3.43,3.43,11.344-9.721a4.059,4.059,0,0,1,5.276,6.088l-14.206,12.176A4.062,4.062,0,0,1,160.791,202.827Z" transform="translate(-130.35 -158.18)"/><path class="b" d="M34.5,69A34.5,34.5,0,1,1,69,34.5,34.5,34.5,0,0,1,34.5,69Zm0-60.882A26.382,26.382,0,1,0,60.882,34.5,26.382,26.382,0,0,0,34.5,8.118Z"/></svg>