<svg xmlns="http://www.w3.org/2000/svg" width="81.295" height="69.429" viewBox="0 0 81.295 69.429"><defs><style>.a{fill:#47568c;}.b{fill:#29376d;}.c{fill:#61729b;}.d{fill:#fed843;}.e{fill:#fabe2c;}</style></defs><g transform="translate(28.682)"><path class="a" d="M204.861,39.753v9.571a2.393,2.393,0,0,1-4.785,0V42.145H185.719v7.178a2.393,2.393,0,0,1-4.785,0V39.753a2.394,2.394,0,0,1,2.393-2.393h19.141A2.394,2.394,0,0,1,204.861,39.753Z" transform="translate(-180.934 -37.36)"/></g><path class="b" d="M267.9,39.753v9.571a2.393,2.393,0,1,1-4.785,0V42.145h-7.178V37.36H265.5A2.394,2.394,0,0,1,267.9,39.753Z" transform="translate(-215.32 -37.36)"/><g transform="translate(19.111 9.571)"><path class="a" d="M164,142.36v23.927a2.394,2.394,0,0,1-2.393,2.393H123.327a2.394,2.394,0,0,1-2.393-2.393V142.36Z" transform="translate(-120.934 -135.182)"/><path class="b" d="M277.468,142.36v23.927a2.394,2.394,0,0,1-2.393,2.393H255.934V142.36Z" transform="translate(-234.4 -135.182)"/><path class="c" d="M161.61,97.36H123.327a2.394,2.394,0,0,0-2.393,2.393v4.785A11.978,11.978,0,0,0,132.9,116.5h19.141A11.977,11.977,0,0,0,164,104.538V99.753A2.394,2.394,0,0,0,161.61,97.36Z" transform="translate(-120.934 -97.36)"/><path class="a" d="M277.468,99.753v4.785A11.977,11.977,0,0,1,265.5,116.5h-9.571V97.36h19.141A2.394,2.394,0,0,1,277.468,99.753Z" transform="translate(-234.4 -97.36)"/></g><g transform="translate(38.252 23.805)"><path class="d" d="M245.719,189.753v4.785a2.393,2.393,0,1,1-4.785,0v-4.785a2.393,2.393,0,1,1,4.785,0Z" transform="translate(-240.934 -187.36)"/></g><path class="e" d="M258.327,189.753v4.785a2.394,2.394,0,0,1-2.393,2.393V187.36A2.394,2.394,0,0,1,258.327,189.753Z" transform="translate(-215.294 -163.555)"/><path class="d" d="M81.042,160.3c-.062.3-1.593,7.328-7.01,10.451-3.264,1.881-7.736,2.021-11.244,1.205q-.848.7-1.75,1.313c5.206,3.2,6.688,10,6.749,10.3a2.379,2.379,0,0,1-1.588,2.749c-3.68,1.2-8.9,1.275-12.568-.837-3.788-2.184-5.674-6.237-6.489-8.575a56.228,56.228,0,0,0-6.5-.458c-1.6.013-3.475.152-6.492.458-.815,2.338-2.7,6.391-6.489,8.575-3.7,2.133-8.946,2.022-12.568.837a2.379,2.379,0,0,1-1.588-2.749c.06-.293,1.544-7.1,6.749-10.3q-.9-.611-1.75-1.313c-3.541.825-8.006.661-11.244-1.205C1.846,167.627.315,160.6.253,160.3a2.378,2.378,0,0,1,1.588-2.749,19.637,19.637,0,0,1,7.9-.693,23.7,23.7,0,0,1-.389-2.576C7.087,153.3,3.028,151.054,1.136,147c-2.644-5.663.14-12.3.259-12.578a2.382,2.382,0,0,1,2.881-1.34c.291.087,7.17,2.224,9.813,7.885,2.249,4.816.573,10.332-.052,12.048a21.193,21.193,0,0,0,1.209,5.9c3.781,2.65,5.42,7.2,5.96,9.079a17.564,17.564,0,0,0,6.041,3.472,20.261,20.261,0,0,1,5.422.766c1.264-.048,3.978-.536,7.977-.541a51.01,51.01,0,0,1,6.564.424c.468.062.945.1,1.418.117a20.257,20.257,0,0,1,5.42-.766A17.571,17.571,0,0,0,60.09,168c.54-1.876,2.179-6.429,5.96-9.079a21.251,21.251,0,0,0,1.209-5.9c-.626-1.716-2.3-7.234-.054-12.048,2.644-5.661,9.522-7.8,9.815-7.885a2.382,2.382,0,0,1,2.881,1.34c.119.281,2.9,6.916.259,12.578-1.891,4.051-5.951,6.3-8.214,7.279a23.707,23.707,0,0,1-.391,2.576,19.642,19.642,0,0,1,7.9.693,2.378,2.378,0,0,1,1.588,2.749Z" transform="translate(0 -117.729)"/><path class="e" d="M296.509,160.454c-.062.3-1.6,7.369-7.041,10.51-3.278,1.892-7.77,2.032-11.293,1.212q-.852.7-1.758,1.321c5.229,3.214,6.717,10.06,6.779,10.356a2.392,2.392,0,0,1-1.6,2.764c-3.7,1.211-8.944,1.282-12.624-.842-3.8-2.2-5.7-6.272-6.518-8.623a56.4,56.4,0,0,0-6.526-.461v-4.774a51.167,51.167,0,0,1,6.593.426c.471.062.949.1,1.424.118a20.323,20.323,0,0,1,5.444-.77,17.644,17.644,0,0,0,6.069-3.492c.542-1.887,2.188-6.465,5.986-9.13a21.394,21.394,0,0,0,1.214-5.937c-.628-1.726-2.311-7.275-.054-12.117,2.656-5.693,9.564-7.842,9.858-7.929a2.392,2.392,0,0,1,2.894,1.348c.12.282,2.916,6.955.26,12.649-1.9,4.074-5.977,6.333-8.25,7.32a23.878,23.878,0,0,1-.392,2.59,19.706,19.706,0,0,1,7.934.7,2.392,2.392,0,0,1,1.6,2.764Z" transform="translate(-215.468 -118.035)"/></svg>