<svg xmlns="http://www.w3.org/2000/svg" width="17.202" height="17.202" viewBox="0 0 17.202 17.202"><defs><style>.a{fill:#555;}</style></defs><path class="a" d="M12.455,0H4.747A4.752,4.752,0,0,0,0,4.747v7.708A4.752,4.752,0,0,0,4.747,17.2h7.708A4.752,4.752,0,0,0,17.2,12.455V4.747A4.752,4.752,0,0,0,12.455,0Zm3.221,12.455a3.225,3.225,0,0,1-3.221,3.221H4.747a3.224,3.224,0,0,1-3.221-3.221V4.747A3.224,3.224,0,0,1,4.747,1.526h7.708a3.225,3.225,0,0,1,3.221,3.221v7.708Z" transform="translate(0 0)"/><path class="a" d="M44.91,40.97a3.942,3.942,0,1,0,3.942,3.942A3.947,3.947,0,0,0,44.91,40.97Zm0,6.527A2.585,2.585,0,1,1,47.5,44.912,2.588,2.588,0,0,1,44.91,47.5Z" transform="translate(-36.309 -36.311)"/><path class="a" d="M120.45,28.251a1.528,1.528,0,1,0,1.081.447A1.535,1.535,0,0,0,120.45,28.251Z" transform="translate(-107.483 -25.534)"/></svg>