<svg xmlns="http://www.w3.org/2000/svg" width="18.035" height="18.035" viewBox="0 0 18.035 18.035"><defs><style>.a{fill:#ce4979;}</style></defs><path class="a" d="M13.058,0H4.977A4.983,4.983,0,0,0,0,4.977v8.081a4.983,4.983,0,0,0,4.977,4.977h8.081a4.983,4.983,0,0,0,4.977-4.977V4.977A4.983,4.983,0,0,0,13.058,0Zm3.377,13.058a3.381,3.381,0,0,1-3.377,3.377H4.977A3.381,3.381,0,0,1,1.6,13.058V4.977A3.381,3.381,0,0,1,4.977,1.6h8.081a3.381,3.381,0,0,1,3.377,3.377v8.081Z" transform="translate(0 0)"/><path class="a" d="M45.1,40.97A4.133,4.133,0,1,0,49.234,45.1,4.138,4.138,0,0,0,45.1,40.97Zm0,6.843a2.71,2.71,0,1,1,2.71-2.71A2.713,2.713,0,0,1,45.1,47.813Z" transform="translate(-36.084 -36.086)"/><path class="a" d="M120.524,28.251a1.6,1.6,0,1,0,1.134.469A1.609,1.609,0,0,0,120.524,28.251Z" transform="translate(-106.929 -25.402)"/></svg>