<svg xmlns="http://www.w3.org/2000/svg" width="53.664" height="53.163" viewBox="0 0 53.664 53.163"><defs><style>.a{fill:#fff;}</style></defs><g transform="translate(0 0)"><path class="a" d="M68.825,8.414a1.312,1.312,0,0,1,1.484,0l.75.526h4.32L71.734,6.383a3.784,3.784,0,0,0-4.334,0L63.755,8.939h4.32Z" transform="translate(-42.735 -5.7)"/><path class="a" d="M57.114,48.653l-3.4-2.386V49.3l1.551,1.088L31.832,66.824,8.4,50.385,9.951,49.3V46.266l-3.4,2.386A3.618,3.618,0,0,0,5,51.605V81.281a3.681,3.681,0,0,0,3.717,3.634H54.947a3.681,3.681,0,0,0,3.717-3.634V51.605A3.617,3.617,0,0,0,57.114,48.653ZM7.481,81.282V52.771L49.764,82.435H8.717A1.2,1.2,0,0,1,7.481,81.282Zm47.466,1.153h-.864L33.992,68.34,56.183,52.77V81.281A1.2,1.2,0,0,1,54.947,82.435Z" transform="translate(-5 -31.753)"/><path class="a" d="M72.1,37.83a.886.886,0,1,0,0-1.772h-14a.886.886,0,0,0,0,1.772Z" transform="translate(-38.535 -25.197)"/><path class="a" d="M24.788,20.7H61.107V34.558l2.481-1.741V19.462a1.24,1.24,0,0,0-1.24-1.24h-38.8a1.24,1.24,0,0,0-1.24,1.24V32.817l2.481,1.741V20.7Z" transform="translate(-16.115 -13.742)"/><path class="a" d="M41.483,59.591l2.527,1.772h6.55a.886.886,0,0,0,.886-.886V50.486a.887.887,0,0,0-.886-.886h-12.2a.887.887,0,0,0-.886.886v6.291l1.772,1.24V51.372H49.674v8.219Z" transform="translate(-25.854 -33.894)"/><path class="a" d="M96.665,49.6H84.353a.886.886,0,0,0,0,1.772H96.665a.886.886,0,0,0,0-1.772Z" transform="translate(-55.395 -33.893)"/><path class="a" d="M96.665,58.906H84.353a.886.886,0,0,0,0,1.772H96.665a.886.886,0,0,0,0-1.772Z" transform="translate(-55.395 -39.871)"/><path class="a" d="M97.461,68.718a.9.9,0,0,0-.167-.242.882.882,0,0,0-.628-.261H84.354a.886.886,0,0,0,0,1.772h11.3Z" transform="translate(-55.395 -45.85)"/><path class="a" d="M93.43,77.524H84.353a.886.886,0,0,0,0,1.772H90.9Z" transform="translate(-55.395 -51.828)"/><path class="a" d="M78.513,95.827h-3.74l1.87,1.312Z" transform="translate(-49.811 -63.583)"/><path class="a" d="M74.9,86.911H62.064l2.526,1.772h7.782Z" transform="translate(-41.649 -57.857)"/></g></svg>