<svg xmlns="http://www.w3.org/2000/svg" width="12.449" height="21.067" viewBox="0 0 12.449 21.067"><defs><style>.a{fill:#fff;}</style></defs><g transform="translate(-24 -6)"><g transform="translate(24 6)"><path class="a" d="M25.676,958.362A1.683,1.683,0,0,0,24,960.038v17.716a1.683,1.683,0,0,0,1.676,1.676h9.1a1.683,1.683,0,0,0,1.676-1.676V960.038a1.683,1.683,0,0,0-1.676-1.676Zm0,.958h9.1a.706.706,0,0,1,.718.718v.718H24.958v-.718A.706.706,0,0,1,25.676,959.32Zm-.718,2.394H35.491V975.12H24.958Zm0,14.364H35.491v1.676a.706.706,0,0,1-.718.718h-9.1a.706.706,0,0,1-.718-.718Zm5.267.479a.718.718,0,1,0,.718.718A.718.718,0,0,0,30.224,976.557Z" transform="translate(-24 -958.362)"/></g></g></svg>