<svg xmlns="http://www.w3.org/2000/svg" width="17.762" height="14.428" viewBox="0 0 17.762 14.428"><defs><style>.a{fill:#289ef3;}</style></defs><g transform="translate(0 0)"><path class="a" d="M17.763,59.148a7.277,7.277,0,0,1-2.092.574,3.659,3.659,0,0,0,1.6-2.015,7.346,7.346,0,0,1-2.315.885,3.647,3.647,0,0,0-6.209,3.322,10.345,10.345,0,0,1-7.51-3.807,3.648,3.648,0,0,0,1.128,4.864,3.644,3.644,0,0,1-1.65-.457v.046a3.647,3.647,0,0,0,2.922,3.573,3.691,3.691,0,0,1-.96.128,3.5,3.5,0,0,1-.686-.068,3.646,3.646,0,0,0,3.4,2.531A7.311,7.311,0,0,1,.87,70.279,7.743,7.743,0,0,1,0,70.23a10.3,10.3,0,0,0,5.585,1.639A10.3,10.3,0,0,0,15.953,61.5l-.012-.472A7.276,7.276,0,0,0,17.763,59.148Z" transform="translate(-0.001 -57.441)"/></g></svg>