<svg xmlns="http://www.w3.org/2000/svg" width="16.942" height="13.761" viewBox="0 0 16.942 13.761"><defs><style>.a{fill:#555;}</style></defs><g transform="translate(0 0)"><path class="a" d="M16.943,59.069a6.94,6.94,0,0,1-2,.547A3.49,3.49,0,0,0,16.475,57.7a7.006,7.006,0,0,1-2.208.844,3.478,3.478,0,0,0-5.922,3.169,9.867,9.867,0,0,1-7.163-3.631,3.479,3.479,0,0,0,1.076,4.639,3.476,3.476,0,0,1-1.574-.436v.043A3.479,3.479,0,0,0,3.47,65.73a3.52,3.52,0,0,1-.916.122,3.337,3.337,0,0,1-.654-.065A3.477,3.477,0,0,0,5.146,68.2,6.973,6.973,0,0,1,.83,69.686,7.388,7.388,0,0,1,0,69.639,9.824,9.824,0,0,0,5.328,71.2a9.82,9.82,0,0,0,9.888-9.888l-.012-.45A6.94,6.94,0,0,0,16.943,59.069Z" transform="translate(-0.001 -57.441)"/></g></svg>